<svg id="instagram_1_" data-name="instagram (1)" xmlns="http://www.w3.org/2000/svg" width="39.762" height="39.762" viewBox="0 0 39.762 39.762">
  <path id="Tracé_25" data-name="Tracé 25" d="M214.611,210.805A3.805,3.805,0,1,1,210.805,207,3.805,3.805,0,0,1,214.611,210.805Zm0,0" transform="translate(-190.924 -190.924)" fill="#b9934c"/>
  <path id="Tracé_26" data-name="Tracé 26" d="M153.743,138.115a3.78,3.78,0,0,0-2.167-2.167,6.316,6.316,0,0,0-2.12-.393c-1.2-.055-1.565-.067-4.613-.067s-3.409.012-4.613.066a6.32,6.32,0,0,0-2.12.393,3.782,3.782,0,0,0-2.167,2.167,6.319,6.319,0,0,0-.393,2.12c-.055,1.2-.067,1.565-.067,4.613s.012,3.409.067,4.613a6.316,6.316,0,0,0,.393,2.12,3.78,3.78,0,0,0,2.167,2.167,6.309,6.309,0,0,0,2.12.393c1.2.055,1.564.066,4.613.066s3.41-.012,4.613-.066a6.309,6.309,0,0,0,2.12-.393,3.78,3.78,0,0,0,2.167-2.167,6.321,6.321,0,0,0,.393-2.12c.055-1.2.066-1.565.066-4.613s-.012-3.409-.066-4.613A6.308,6.308,0,0,0,153.743,138.115Zm-8.9,12.595a5.862,5.862,0,1,1,5.862-5.862A5.862,5.862,0,0,1,144.844,150.71Zm6.094-10.586a1.37,1.37,0,1,1,1.37-1.37A1.37,1.37,0,0,1,150.938,140.124Zm0,0" transform="translate(-124.963 -124.967)" fill="#b9934c"/>
  <path id="Tracé_27" data-name="Tracé 27" d="M19.881,0A19.881,19.881,0,1,0,39.762,19.881,19.883,19.883,0,0,0,19.881,0ZM31.228,24.587a8.376,8.376,0,0,1-.531,2.771A5.837,5.837,0,0,1,27.359,30.7a8.381,8.381,0,0,1-2.771.531c-1.217.056-1.606.069-4.707.069s-3.489-.013-4.707-.069A8.381,8.381,0,0,1,12.4,30.7a5.837,5.837,0,0,1-3.339-3.339,8.374,8.374,0,0,1-.531-2.771c-.056-1.218-.069-1.607-.069-4.707s.013-3.489.069-4.707a8.376,8.376,0,0,1,.53-2.771A5.841,5.841,0,0,1,12.4,9.064a8.383,8.383,0,0,1,2.771-.531c1.217-.056,1.606-.069,4.707-.069s3.489.013,4.707.069a8.385,8.385,0,0,1,2.771.53A5.839,5.839,0,0,1,30.7,12.4a8.375,8.375,0,0,1,.531,2.771c.056,1.217.069,1.606.069,4.707S31.284,23.37,31.228,24.587Zm0,0" fill="#b9934c"/>
</svg>
