<svg id="paid" xmlns="http://www.w3.org/2000/svg" width="128.551" height="125.842" viewBox="0 0 128.551 125.842">
  <path id="Tracé_88" data-name="Tracé 88" d="M128.551,68.316c0,4.8-3.6,9.128-4.621,13.618-1.054,4.636.287,10.094-1.731,14.277-2.051,4.252-7.176,6.6-10.091,10.248-2.93,3.67-4.085,9.182-7.755,12.112-3.652,2.916-9.278,2.825-13.529,4.876-4.183,2.018-7.606,6.493-12.242,7.547-4.49,1.021-9.506-1.5-14.305-1.5s-9.815,2.523-14.305,1.5c-4.636-1.054-8.06-5.529-12.242-7.547-4.252-2.051-9.877-1.96-13.529-4.876-3.67-2.93-4.825-8.442-7.755-12.112-2.916-3.652-8.04-6-10.092-10.248-2.018-4.183-.677-9.641-1.731-14.276C3.6,77.444,0,73.115,0,68.316S3.6,59.188,4.621,54.7C5.675,50.062,4.335,44.6,6.352,40.422c2.051-4.252,7.175-6.6,10.091-10.248,2.93-3.67,4.085-9.182,7.755-12.112,3.652-2.916,9.278-2.825,13.529-4.876,4.183-2.018,7.606-6.493,12.242-7.547,4.49-1.021,9.506,1.5,14.305,1.5s9.815-2.523,14.305-1.5c4.636,1.054,8.06,5.529,12.242,7.547,4.252,2.051,9.877,1.96,13.529,4.876,3.67,2.93,4.825,8.442,7.755,12.112,2.916,3.652,8.04,6,10.091,10.248,2.018,4.183.677,9.641,1.731,14.276C124.95,59.188,128.551,63.517,128.551,68.316Z" transform="translate(0 -5.396)" fill="#b9934c"/>
  <path id="Tracé_89" data-name="Tracé 89" d="M107.251,460.969c.367.176.726.372,1.083.584-2.832-.713-5.764-1.258-8.1-2.705A36.812,36.812,0,0,1,107.251,460.969Z" transform="translate(-75.064 -344.997)" fill="#f6f2e9"/>
  <path id="Tracé_90" data-name="Tracé 90" d="M265.251,97.876c0,4.8-3.6,9.128-4.62,13.618-1.054,4.635.287,10.094-1.734,14.277-2.049,4.25-7.175,6.6-10.089,10.247-2.932,3.671-4.087,9.182-7.756,12.112-3.653,2.917-9.278,2.826-13.53,4.878-4.183,2.018-7.606,6.493-12.241,7.547-4.49,1.021-9.508-1.5-14.305-1.5s-9.815,2.524-14.305,1.5a12.917,12.917,0,0,1-4.141-1.871c4.118.32,14.143-4.392,18.447-4.392,4.8,0,8.85,2.342,13.341,1.321,4.635-1.054,6.626-5.669,10.809-7.686,4.253-2.051,8.185-.387,11.838-3.3,3.669-2.93,3.37-7.013,6.3-10.682,2.914-3.653,8.04-6,10.089-10.249,2.02-4.183.679-9.639,1.734-14.274,1.021-4.49,4.406-6.743,4.406-11.541s-3.444-8.632-4.465-13.122c-1.054-4.638.818-8.988-1.2-13.171-2.051-4.253-7.271-7.325-10.186-10.976-2.932-3.671-4.465-12.132-8.134-15.065a9.2,9.2,0,0,0-.971-.677,16.681,16.681,0,0,1,6.513,2.757c3.669,2.93,4.824,8.441,7.756,12.112,2.914,3.651,8.04,6,10.091,10.247,2.018,4.183.677,9.642,1.731,14.277,1.02,4.49,4.619,8.821,4.619,13.618Z" transform="translate(-136.7 -34.955)" fill="#f6f2e9"/>
  <path id="Tracé_91" data-name="Tracé 91" d="M136.968,471.118c2.844,1.372,5.338,3.881,8.1,5.676a10.3,10.3,0,0,1-1.4-.209c-4.229-.961-7.451-4.772-11.159-6.963A23.23,23.23,0,0,1,136.968,471.118Z" transform="translate(-99.239 -353.066)" fill="#f6f2e9"/>
  <ellipse id="Ellipse_13" data-name="Ellipse 13" cx="41.716" cy="41.717" rx="41.716" ry="41.717" transform="translate(22.559 21.204)" fill="#f6f2e9"/>
  <path id="Tracé_96" data-name="Tracé 96" d="M227.973,144.832a41.725,41.725,0,0,1-65.1,34.556,41.724,41.724,0,0,0,42.149-71.824A41.72,41.72,0,0,1,227.973,144.832Z" transform="translate(-121.98 -81.912)" fill="#f6f2e9"/>
  <g id="Groupe_38" data-name="Groupe 38" transform="translate(62.338 8.397)">
    <g id="Groupe_36" data-name="Groupe 36">
      <path id="Tracé_97" data-name="Tracé 97" d="M250.22,46.03a1.938,1.938,0,0,1-1.938-1.938V40.777a1.938,1.938,0,0,1,3.876,0v3.316A1.938,1.938,0,0,1,250.22,46.03Z" transform="translate(-248.282 -38.839)" fill="#f6f2e9"/>
    </g>
    <g id="Groupe_37" data-name="Groupe 37" transform="translate(0 101.856)">
      <path id="Tracé_98" data-name="Tracé 98" d="M250.22,451.708a1.938,1.938,0,0,1-1.938-1.938v-3.316a1.938,1.938,0,0,1,3.876,0v3.316A1.938,1.938,0,0,1,250.22,451.708Z" transform="translate(-248.282 -444.517)" fill="#f6f2e9"/>
    </g>
  </g>
  <g id="Groupe_41" data-name="Groupe 41" transform="translate(44.352 11.568)">
    <g id="Groupe_39" data-name="Groupe 39">
      <path id="Tracé_99" data-name="Tracé 99" d="M179.719,58.46a1.938,1.938,0,0,1-1.821-1.275l-1.134-3.116a1.938,1.938,0,0,1,3.642-1.326l1.134,3.116a1.939,1.939,0,0,1-1.821,2.6Z" transform="translate(-176.646 -51.468)" fill="#f6f2e9"/>
    </g>
    <g id="Groupe_40" data-name="Groupe 40" transform="translate(34.837 95.714)">
      <path id="Tracé_100" data-name="Tracé 100" d="M318.47,439.673a1.938,1.938,0,0,1-1.821-1.275l-1.134-3.116a1.938,1.938,0,0,1,3.642-1.326l1.134,3.116a1.939,1.939,0,0,1-1.821,2.6Z" transform="translate(-315.397 -432.682)" fill="#f6f2e9"/>
    </g>
  </g>
  <g id="Groupe_44" data-name="Groupe 44" transform="translate(28.536 20.7)">
    <g id="Groupe_42" data-name="Groupe 42">
      <path id="Tracé_101" data-name="Tracé 101" d="M117.725,94.255a1.934,1.934,0,0,1-1.485-.692l-2.131-2.54a1.938,1.938,0,1,1,2.968-2.491l2.131,2.54a1.938,1.938,0,0,1-1.483,3.183Z" transform="translate(-113.655 -87.84)" fill="#f6f2e9"/>
    </g>
    <g id="Groupe_43" data-name="Groupe 43" transform="translate(65.472 78.026)">
      <path id="Tracé_102" data-name="Tracé 102" d="M378.49,405.023a1.934,1.934,0,0,1-1.485-.692l-2.131-2.54a1.938,1.938,0,1,1,2.968-2.491l2.131,2.54a1.938,1.938,0,0,1-1.483,3.183Z" transform="translate(-374.42 -398.607)" fill="#f6f2e9"/>
    </g>
  </g>
  <g id="Groupe_47" data-name="Groupe 47" transform="translate(16.797 34.69)">
    <g id="Groupe_45" data-name="Groupe 45">
      <path id="Tracé_103" data-name="Tracé 103" d="M71.707,149.094a1.932,1.932,0,0,1-.967-.26l-2.872-1.658a1.938,1.938,0,1,1,1.938-3.356l2.872,1.658a1.938,1.938,0,0,1-.97,3.616Z" transform="translate(-66.899 -143.56)" fill="#f6f2e9"/>
    </g>
    <g id="Groupe_46" data-name="Groupe 46" transform="translate(88.21 50.928)">
      <path id="Tracé_104" data-name="Tracé 104" d="M423.034,351.932a1.932,1.932,0,0,1-.967-.26l-2.872-1.658a1.938,1.938,0,0,1,1.938-3.356L424,348.316a1.938,1.938,0,0,1-.97,3.616Z" transform="translate(-418.226 -346.399)" fill="#f6f2e9"/>
    </g>
  </g>
  <g id="Groupe_50" data-name="Groupe 50" transform="translate(10.551 51.851)">
    <g id="Groupe_48" data-name="Groupe 48">
      <path id="Tracé_105" data-name="Tracé 105" d="M47.227,216.363a1.924,1.924,0,0,1-.339-.03l-3.265-.576a1.938,1.938,0,1,1,.673-3.816l3.265.576a1.938,1.938,0,0,1-.334,3.846Z" transform="translate(-42.021 -211.911)" fill="#f6f2e9"/>
    </g>
    <g id="Groupe_49" data-name="Groupe 49" transform="translate(100.308 17.687)">
      <path id="Tracé_106" data-name="Tracé 106" d="M446.742,286.807a1.924,1.924,0,0,1-.339-.03l-3.265-.576a1.938,1.938,0,1,1,.673-3.816l3.265.576a1.938,1.938,0,0,1-.334,3.846Z" transform="translate(-441.536 -282.355)" fill="#f6f2e9"/>
    </g>
  </g>
  <g id="Groupe_53" data-name="Groupe 53" transform="translate(10.551 51.851)">
    <g id="Groupe_51" data-name="Groupe 51" transform="translate(0 17.687)">
      <path id="Tracé_107" data-name="Tracé 107" d="M43.957,286.807a1.938,1.938,0,0,1-.334-3.846l3.265-.576a1.938,1.938,0,1,1,.673,3.816l-3.265.576A1.928,1.928,0,0,1,43.957,286.807Z" transform="translate(-42.022 -282.355)" fill="#f6f2e9"/>
    </g>
    <g id="Groupe_52" data-name="Groupe 52" transform="translate(100.308)">
      <path id="Tracé_108" data-name="Tracé 108" d="M443.472,216.363a1.938,1.938,0,0,1-.334-3.846l3.265-.576a1.938,1.938,0,1,1,.673,3.816l-3.265.576A1.955,1.955,0,0,1,443.472,216.363Z" transform="translate(-441.537 -211.911)" fill="#f6f2e9"/>
    </g>
  </g>
  <g id="Groupe_56" data-name="Groupe 56" transform="translate(16.797 34.69)">
    <g id="Groupe_54" data-name="Groupe 54" transform="translate(0 50.928)">
      <path id="Tracé_109" data-name="Tracé 109" d="M68.839,351.933a1.938,1.938,0,0,1-.971-3.616l2.872-1.658a1.938,1.938,0,0,1,1.938,3.356l-2.872,1.658A1.93,1.93,0,0,1,68.839,351.933Z" transform="translate(-66.899 -346.399)" fill="#f6f2e9"/>
    </g>
    <g id="Groupe_55" data-name="Groupe 55" transform="translate(88.21)">
      <path id="Tracé_110" data-name="Tracé 110" d="M420.166,149.094a1.938,1.938,0,0,1-.971-3.616l2.872-1.658A1.938,1.938,0,0,1,424,147.176l-2.872,1.658A1.928,1.928,0,0,1,420.166,149.094Z" transform="translate(-418.226 -143.56)" fill="#f6f2e9"/>
    </g>
  </g>
  <g id="Groupe_59" data-name="Groupe 59" transform="translate(28.536 20.699)">
    <g id="Groupe_57" data-name="Groupe 57" transform="translate(0 78.026)">
      <path id="Tracé_111" data-name="Tracé 111" d="M115.592,405.021a1.938,1.938,0,0,1-1.483-3.183l2.131-2.54a1.938,1.938,0,1,1,2.968,2.491l-2.131,2.54A1.933,1.933,0,0,1,115.592,405.021Z" transform="translate(-113.655 -398.605)" fill="#f6f2e9"/>
    </g>
    <g id="Groupe_58" data-name="Groupe 58" transform="translate(65.472)">
      <path id="Tracé_112" data-name="Tracé 112" d="M376.357,94.253a1.938,1.938,0,0,1-1.483-3.183L377,88.53a1.938,1.938,0,1,1,2.968,2.491l-2.131,2.54A1.932,1.932,0,0,1,376.357,94.253Z" transform="translate(-374.42 -87.838)" fill="#f6f2e9"/>
    </g>
  </g>
  <g id="Groupe_62" data-name="Groupe 62" transform="translate(44.352 11.568)">
    <g id="Groupe_60" data-name="Groupe 60" transform="translate(0 95.713)">
      <path id="Tracé_113" data-name="Tracé 113" d="M178.585,439.674a1.939,1.939,0,0,1-1.821-2.6l1.134-3.116a1.938,1.938,0,0,1,3.642,1.326l-1.134,3.116A1.939,1.939,0,0,1,178.585,439.674Z" transform="translate(-176.646 -432.682)" fill="#f6f2e9"/>
    </g>
    <g id="Groupe_61" data-name="Groupe 61" transform="translate(34.837)">
      <path id="Tracé_114" data-name="Tracé 114" d="M317.335,58.461a1.939,1.939,0,0,1-1.821-2.6l1.134-3.116a1.938,1.938,0,0,1,3.642,1.326l-1.134,3.116A1.938,1.938,0,0,1,317.335,58.461Z" transform="translate(-315.396 -51.469)" fill="#f6f2e9"/>
    </g>
  </g>
  <text id="Marseille" transform="translate(64.275 89.728)" fill="#b9934c" font-size="12" font-family="Montserrat-Bold, Montserrat" font-weight="700"><tspan x="-28.182" y="0">Marseille</tspan></text>
  <g id="cathedral" transform="translate(37.451 18.152)">
    <g id="Groupe_68" data-name="Groupe 68" transform="translate(9.43 7.5)">
      <g id="Groupe_67" data-name="Groupe 67">
        <path id="Tracé_130" data-name="Tracé 130" d="M100.636,15.987,96.916,7.5h-.21l-3.72,8.487H90V59.576h13.622V15.987ZM96.811,28.561a2.1,2.1,0,1,1,2.1-2.1A2.1,2.1,0,0,1,96.811,28.561Z" transform="translate(-90 -7.5)" fill="#b9934c"/>
      </g>
    </g>
    <g id="Groupe_70" data-name="Groupe 70" transform="translate(26.195 24.894)">
      <g id="Groupe_69" data-name="Groupe 69">
        <path id="Tracé_131" data-name="Tracé 131" d="M271.166,173.5v6.287H250v3.143h21.166v4.175c-.179.01-.365.016-.559.016a6.636,6.636,0,0,1-3.508-.883,10.544,10.544,0,0,0-9.819,0,7.41,7.41,0,0,1-7.016,0l-.263-.131v22.075h27.453V173.5Zm-15.089,31.539h-3.143V195.5h3.143Zm6.287,0h-3.143V195.5h3.143Zm5.868,0h-3.143V195.5h3.143Z" transform="translate(-250 -173.5)" fill="#b9934c"/>
      </g>
    </g>
    <g id="Groupe_72" data-name="Groupe 72" transform="translate(0 31.181)">
      <g id="Groupe_71" data-name="Groupe 71">
        <path id="Tracé_132" data-name="Tracé 132" d="M3.488,233.5,0,247.452V261.9H6.287V233.5Z" transform="translate(0 -233.5)" fill="#b9934c"/>
      </g>
    </g>
  </g>
</svg>
